<svg width="40" height="23" viewBox="0 0 40 23" fill="none" xmlns="http://www.w3.org/2000/svg">
<path d="M39.5 3.51621C39.4974 2.65279 39.1215 1.82542 38.4547 1.21489C37.7878 0.604354 36.8841 0.260289 35.941 0.257874H3.559C2.61591 0.260289 1.71219 0.604354 1.04532 1.21489C0.378451 1.82542 0.00263878 2.65279 0 3.51621V19.4838C0.00263878 20.3472 0.378451 21.1746 1.04532 21.7851C1.71219 22.3957 2.61591 22.7397 3.559 22.7421H35.941C36.8841 22.7397 37.7878 22.3957 38.4547 21.7851C39.1215 21.1746 39.4974 20.3472 39.5 19.4838V3.51621ZM38.077 19.4838C38.0754 20.0018 37.85 20.4981 37.4499 20.8643C37.0499 21.2306 36.5078 21.437 35.942 21.4384H3.559C2.99308 21.4372 2.45069 21.2309 2.05043 20.8647C1.65017 20.4984 1.42458 20.0019 1.423 19.4838V3.51621C1.42458 2.99825 1.65003 2.50193 2.05008 2.13567C2.45012 1.76942 2.99225 1.56302 3.558 1.56157H35.941C36.5068 1.56302 37.0489 1.76942 37.4489 2.13567C37.849 2.50193 38.0744 2.99825 38.076 3.51621L38.077 19.4838Z" fill="#3B97D3"/>
<path d="M7.57977 2.76763C7.57977 2.57171 7.54377 2.21832 7.54377 2.21832H6.83477C6.89282 2.39631 6.91684 2.58215 6.90577 2.76763C6.91147 3.26688 6.80875 3.76218 6.60357 4.22476C6.3984 4.68735 6.09487 5.10799 5.71061 5.46226C5.32635 5.81653 4.86902 6.09736 4.3652 6.28843C3.86137 6.47951 3.3211 6.57701 2.77577 6.57528C2.57328 6.58259 2.3708 6.56065 2.17577 6.51028V7.16213C2.37018 7.21528 2.57317 7.23727 2.77577 7.22713C4.05814 7.21722 5.28391 6.74224 6.18441 5.90631C7.08491 5.07038 7.58669 3.9417 7.57977 2.76763ZM2.73477 15.5062C2.52077 15.5062 2.13477 15.5391 2.13477 15.5391V16.1883C2.32918 16.1351 2.53217 16.1131 2.73477 16.1233C3.85144 16.1411 4.91529 16.5617 5.69503 17.2938C6.47478 18.0258 6.90737 19.0101 6.89877 20.0325C6.89877 20.2605 6.82776 20.4235 6.79177 20.7494H7.50377C7.53976 20.4235 7.57477 20.2284 7.57477 20.0325C7.58335 18.8459 7.07954 17.7043 6.17303 16.8562C5.26652 16.0081 4.03073 15.5222 2.73477 15.5044V15.5062ZM36.0428 6.51394C35.4973 6.51904 34.9561 6.42482 34.4508 6.23676C33.9454 6.04869 33.486 5.77054 33.0991 5.41846C32.7122 5.06638 32.4056 4.6474 32.1971 4.18589C31.9887 3.72437 31.8825 3.22952 31.8848 2.7301C31.8768 2.54472 31.9007 2.35934 31.9558 2.18079H31.2438C31.2047 2.36156 31.1926 2.54635 31.2078 2.7301C31.2018 3.31503 31.3227 3.89522 31.5634 4.43709C31.8041 4.97895 32.1598 5.47171 32.6099 5.88682C33.0601 6.30193 33.5958 6.63115 34.1859 6.85541C34.776 7.07966 35.4088 7.1945 36.0478 7.19326C36.3723 7.18194 36.6945 7.13836 37.0088 7.06326V6.37936C36.6983 6.47021 36.3737 6.51412 36.0478 6.50937L36.0428 6.51394ZM36.0428 16.1571C36.3687 16.1524 36.6933 16.1963 37.0038 16.2871V15.5703C36.6883 15.5055 36.3661 15.4727 36.0428 15.4723C34.7385 15.4921 33.4954 15.9822 32.5835 16.8362C31.6716 17.6902 31.1647 18.8392 31.1728 20.0334C31.1728 20.2614 31.2088 20.4244 31.2438 20.7503H31.9558C31.9198 20.4244 31.8488 20.2294 31.8488 20.0334C31.8736 19.0178 32.323 18.0495 33.1044 17.3282C33.8858 16.6068 34.9396 16.1874 36.0488 16.1562L36.0428 16.1571Z" fill="#3B97D3"/>
<path d="M19.5715 3.58148C17.8965 3.58148 16.2591 4.03622 14.8664 4.88819C13.4737 5.74016 12.3882 6.9511 11.7472 8.36787C11.1062 9.78465 10.9385 11.3436 11.2653 12.8477C11.592 14.3517 12.3986 15.7333 13.5831 16.8176C14.7675 17.902 16.2765 18.6404 17.9193 18.9396C19.5621 19.2388 21.265 19.0852 22.8125 18.4984C24.36 17.9115 25.6827 16.9177 26.6133 15.6427C27.5438 14.3676 28.0405 12.8685 28.0405 11.335C28.0408 10.3167 27.8219 9.3084 27.3964 8.36759C26.9709 7.42677 26.3471 6.57194 25.5606 5.85191C24.7741 5.13188 23.8404 4.56076 22.8128 4.17119C21.7852 3.78163 20.6838 3.58124 19.5715 3.58148ZM19.5715 18.4706C18.0326 18.4737 16.5272 18.0585 15.2461 17.2778C13.965 16.497 12.9658 15.3857 12.3751 14.0847C11.7844 12.7836 11.6287 11.3514 11.9278 9.96925C12.2268 8.58714 12.9672 7.31737 14.055 6.32075C15.1429 5.32414 16.5294 4.64552 18.0388 4.37084C19.5483 4.09616 21.1128 4.23778 22.5343 4.77776C23.9558 5.31775 25.1702 6.2318 26.0239 7.40416C26.8775 8.57651 27.3319 9.95444 27.3295 11.3634C27.3261 13.2466 26.5078 15.0518 25.0538 16.3839C23.5998 17.7159 21.6285 18.4662 19.5715 18.4706Z" fill="#2C3E50"/>
<path d="M18.8604 14.4955C18.3446 14.4372 17.8477 14.2813 17.4014 14.0377L17.8644 13.0307C18.2777 13.3107 18.7736 13.4702 19.2874 13.4884C19.9994 13.4884 20.3554 13.2605 20.3554 12.8045C20.3455 12.5734 20.2442 12.3534 20.0704 12.1856C19.774 11.9111 19.4239 11.69 19.0384 11.5338C18.6663 11.3829 18.319 11.1854 18.0064 10.9469C17.8255 10.7917 17.6803 10.6049 17.5794 10.3976C17.4779 10.1819 17.4294 9.94847 17.4374 9.71373C17.4203 9.34435 17.5605 8.98331 17.8284 8.70665C18.1215 8.42809 18.49 8.2256 18.8964 8.11981V7.42584H19.9964V8.10974C20.4493 8.1296 20.8896 8.25264 21.2774 8.46771L20.9214 9.41252C20.534 9.13872 20.0587 8.98971 19.5694 8.98864C19.4536 8.9805 19.3373 8.99364 19.2272 9.02729C19.1172 9.06093 19.0155 9.11441 18.9284 9.18456C18.7857 9.32608 18.7089 9.51296 18.7144 9.70549C18.7144 10.0635 19.1414 10.4223 20.0314 10.8133C20.3893 10.9559 20.7255 11.1405 21.0314 11.3626C21.2355 11.5209 21.3944 11.7223 21.4944 11.9494C21.599 12.1986 21.6473 12.4646 21.6364 12.7313C21.6414 13.1155 21.4891 13.4875 21.2094 13.7741C20.8697 14.0533 20.4697 14.2642 20.0354 14.393V15.2398H18.9674V14.4909L18.8604 14.4955Z" fill="#3B97D3"/>
</svg>
