<svg width="90" height="90" viewBox="0 0 90 90" fill="none" xmlns="http://www.w3.org/2000/svg">
<g filter="url(#filter0_d_1_1283)">
<rect width="82" height="82" transform="translate(4 4)" fill="white"/>
<path d="M47.0622 16.2854L28.4082 32.6732C27.2854 33.6422 26.3908 34.811 25.7794 36.108C25.1679 37.405 24.8525 38.8027 24.8525 40.2153C24.8525 41.6279 25.1679 43.0256 25.7794 44.3226C26.3908 45.6196 27.2854 46.7884 28.4082 47.7573L28.7422 48.0503C29.8661 49.0219 31.3534 49.5632 32.8992 49.5632C34.445 49.5632 35.9323 49.0219 37.0562 48.0503L45.2062 40.8891L44.8722 40.5962C43.7483 39.6248 42.2613 39.0837 40.7157 39.0837C39.1701 39.0837 37.6831 39.6248 36.5592 40.5962L47.0592 31.3677C48.1817 30.3989 49.0762 29.2303 49.6876 27.9336C50.299 26.6369 50.6146 25.2395 50.6148 23.8272C50.6151 22.4148 50.3001 21.0173 49.6892 19.7204C49.0783 18.4235 48.1843 17.2546 47.0622 16.2854Z" fill="#FFB000"/>
<path d="M61.59 29.0013L61.256 28.7083C60.1321 27.7367 58.6448 27.1955 57.099 27.1955C55.5532 27.1955 54.066 27.7367 52.942 28.7083L44.569 36.0654L44.903 36.3584C46.027 37.33 47.5142 37.8713 49.06 37.8713C50.6058 37.8713 52.0931 37.33 53.217 36.3584L42.937 45.3909C41.8142 46.3599 40.9196 47.5287 40.3082 48.8257C39.6967 50.1227 39.3813 51.5204 39.3813 52.933C39.3813 54.3456 39.6967 55.7433 40.3082 57.0403C40.9196 58.3373 41.8142 59.5061 42.937 60.4751L61.591 44.0872C62.714 43.1182 63.6088 41.9492 64.2204 40.652C64.8319 39.3549 65.1473 37.9569 65.1472 36.5441C65.1472 35.1312 64.8315 33.7333 64.2198 32.4362C63.6081 31.1391 62.7132 29.9702 61.59 29.0013Z" fill="#48464C"/>
<path d="M21.9785 72.2698C21.6162 72.4612 21.165 72.5569 20.625 72.5569C19.9277 72.5569 19.3695 72.3325 18.9502 71.8836C18.5309 71.4347 18.3213 70.8457 18.3213 70.1165C18.3213 69.3326 18.5571 68.6992 19.0288 68.2161C19.5005 67.733 20.0986 67.4915 20.8232 67.4915C21.2881 67.4915 21.6732 67.5587 21.9785 67.6931V68.305C21.6276 68.109 21.2402 68.011 20.8164 68.011C20.2536 68.011 19.7967 68.199 19.4458 68.575C19.0972 68.951 18.9229 69.4534 18.9229 70.0823C18.9229 70.6793 19.0858 71.1555 19.4116 71.511C19.7397 71.8642 20.1693 72.0408 20.7002 72.0408C21.1924 72.0408 21.6185 71.9314 21.9785 71.7127V72.2698ZM24.7607 72.5569C24.0658 72.5569 23.5086 72.3279 23.0894 71.8699C22.6724 71.4119 22.4639 70.816 22.4639 70.0823C22.4639 69.2939 22.6769 68.665 23.103 68.1956C23.5291 67.7262 24.109 67.4915 24.8428 67.4915C25.5195 67.4915 26.0641 67.7194 26.4766 68.1751C26.8913 68.6308 27.0986 69.2267 27.0986 69.9627C27.0986 70.7625 26.8867 71.3948 26.4629 71.8596C26.0391 72.3245 25.4717 72.5569 24.7607 72.5569ZM24.8018 68.011C24.2868 68.011 23.8687 68.1967 23.5474 68.5681C23.2261 68.9396 23.0654 69.4272 23.0654 70.031C23.0654 70.6349 23.2215 71.1214 23.5337 71.4905C23.8481 71.8574 24.2572 72.0408 24.7607 72.0408C25.2985 72.0408 25.7223 71.8653 26.0322 71.5144C26.3421 71.1635 26.4971 70.6725 26.4971 70.0413C26.4971 69.3942 26.3467 68.894 26.0459 68.5408C25.7451 68.1876 25.3304 68.011 24.8018 68.011ZM33.0596 72.4749H32.4888V69.1868C32.4888 68.927 32.5047 68.6092 32.5366 68.2332H32.5229C32.4683 68.4542 32.4193 68.6126 32.376 68.7083L30.7012 72.4749H30.4209L28.7495 68.7356C28.7017 68.6263 28.6527 68.4588 28.6025 68.2332H28.5889C28.6071 68.4291 28.6162 68.7493 28.6162 69.1936V72.4749H28.0625V67.5735H28.8213L30.3252 70.9915C30.4414 71.2535 30.5166 71.4495 30.5508 71.5794H30.5713C30.6693 71.3105 30.7479 71.11 30.8071 70.9778L32.3418 67.5735H33.0596V72.4749ZM34.9258 70.6223V72.4749H34.3516V67.5735H35.6982C36.2223 67.5735 36.6279 67.7011 36.915 67.9563C37.2044 68.2115 37.3491 68.5716 37.3491 69.0364C37.3491 69.5013 37.1885 69.8818 36.8672 70.178C36.5482 70.4742 36.1164 70.6223 35.5718 70.6223H34.9258ZM34.9258 68.093V70.1028H35.5273C35.9238 70.1028 36.2257 70.0128 36.4331 69.8328C36.6427 69.6505 36.7476 69.3942 36.7476 69.0638C36.7476 68.4166 36.3647 68.093 35.5991 68.093H34.9258ZM41.5908 72.4749H40.9551L40.4355 71.1009H38.3574L37.8687 72.4749H37.2295L39.1094 67.5735H39.7041L41.5908 72.4749ZM40.2476 70.5847L39.4785 68.4964C39.4535 68.428 39.4284 68.3186 39.4033 68.1682H39.3896C39.3669 68.3072 39.3407 68.4166 39.311 68.4964L38.5488 70.5847H40.2476ZM46.2666 72.4749H45.5625L43.04 68.5681C42.9762 68.4702 42.9238 68.3676 42.8828 68.2605H42.8623C42.8805 68.3653 42.8896 68.5898 42.8896 68.9339V72.4749H42.3154V67.5735H43.0605L45.5146 71.4187C45.6172 71.5782 45.6833 71.6876 45.7129 71.7469H45.7266C45.7038 71.6056 45.6924 71.3652 45.6924 71.0257V67.5735H46.2666V72.4749ZM50.7373 67.5735L49.1206 70.6634V72.4749H48.5464V70.677L46.9707 67.5735H47.6235L48.7207 69.7884C48.7344 69.8157 48.7743 69.916 48.8403 70.0891H48.8506C48.8734 70.0117 48.9167 69.9114 48.9805 69.7884L50.1289 67.5735H50.7373ZM55.8848 72.4749H53.3418V67.5735H53.916V71.9554H55.8848V72.4749ZM58.373 72.5569C57.6781 72.5569 57.1209 72.3279 56.7017 71.8699C56.2847 71.4119 56.0762 70.816 56.0762 70.0823C56.0762 69.2939 56.2892 68.665 56.7153 68.1956C57.1414 67.7262 57.7214 67.4915 58.4551 67.4915C59.1318 67.4915 59.6764 67.7194 60.0889 68.1751C60.5036 68.6308 60.7109 69.2267 60.7109 69.9627C60.7109 70.7625 60.499 71.3948 60.0752 71.8596C59.6514 72.3245 59.084 72.5569 58.373 72.5569ZM58.4141 68.011C57.8991 68.011 57.481 68.1967 57.1597 68.5681C56.8384 68.9396 56.6777 69.4272 56.6777 70.031C56.6777 70.6349 56.8338 71.1214 57.146 71.4905C57.4604 71.8574 57.8695 72.0408 58.373 72.0408C58.9108 72.0408 59.3346 71.8653 59.6445 71.5144C59.9544 71.1635 60.1094 70.6725 60.1094 70.0413C60.1094 69.3942 59.959 68.894 59.6582 68.5408C59.3574 68.1876 58.9427 68.011 58.4141 68.011ZM65.3389 72.1399C64.8467 72.4179 64.2998 72.5569 63.6982 72.5569C62.9987 72.5569 62.4325 72.3313 61.9995 71.8802C61.5688 71.429 61.3535 70.832 61.3535 70.0891C61.3535 69.3304 61.5928 68.7083 62.0713 68.2229C62.5521 67.7353 63.1605 67.4915 63.8965 67.4915C64.4297 67.4915 64.8774 67.5781 65.2397 67.7513V68.387C64.8433 68.1363 64.3739 68.011 63.8315 68.011C63.2824 68.011 62.8324 68.2001 62.4814 68.5784C62.1305 68.9567 61.9551 69.4466 61.9551 70.0481C61.9551 70.6679 62.118 71.1555 62.4438 71.511C62.7697 71.8642 63.2118 72.0408 63.77 72.0408C64.1528 72.0408 64.4844 71.9645 64.7646 71.8118V70.4378H63.6914V69.9182H65.3389V72.1399ZM68.4561 72.5569C67.7611 72.5569 67.2039 72.3279 66.7847 71.8699C66.3677 71.4119 66.1592 70.816 66.1592 70.0823C66.1592 69.2939 66.3722 68.665 66.7983 68.1956C67.2244 67.7262 67.8044 67.4915 68.5381 67.4915C69.2148 67.4915 69.7594 67.7194 70.1719 68.1751C70.5866 68.6308 70.7939 69.2267 70.7939 69.9627C70.7939 70.7625 70.582 71.3948 70.1582 71.8596C69.7344 72.3245 69.167 72.5569 68.4561 72.5569ZM68.4971 68.011C67.9821 68.011 67.564 68.1967 67.2427 68.5681C66.9214 68.9396 66.7607 69.4272 66.7607 70.031C66.7607 70.6349 66.9168 71.1214 67.229 71.4905C67.5435 71.8574 67.9525 72.0408 68.4561 72.0408C68.9938 72.0408 69.4176 71.8653 69.7275 71.5144C70.0374 71.1635 70.1924 70.6725 70.1924 70.0413C70.1924 69.3942 70.042 68.894 69.7412 68.5408C69.4404 68.1876 69.0257 68.011 68.4971 68.011Z" fill="#48464C"/>
</g>
<defs>
<filter id="filter0_d_1_1283" x="0" y="0" width="90" height="90" filterUnits="userSpaceOnUse" color-interpolation-filters="sRGB">
<feFlood flood-opacity="0" result="BackgroundImageFix"/>
<feColorMatrix in="SourceAlpha" type="matrix" values="0 0 0 0 0 0 0 0 0 0 0 0 0 0 0 0 0 0 127 0" result="hardAlpha"/>
<feOffset/>
<feGaussianBlur stdDeviation="2"/>
<feComposite in2="hardAlpha" operator="out"/>
<feColorMatrix type="matrix" values="0 0 0 0 0 0 0 0 0 0 0 0 0 0 0 0 0 0 0.25 0"/>
<feBlend mode="normal" in2="BackgroundImageFix" result="effect1_dropShadow_1_1283"/>
<feBlend mode="normal" in="SourceGraphic" in2="effect1_dropShadow_1_1283" result="shape"/>
</filter>
</defs>
</svg>
