<svg width="39" height="23" viewBox="0 0 39 23" fill="none" xmlns="http://www.w3.org/2000/svg">
<path d="M38.2203 2.34795V20.6584C38.2192 21.074 38.0384 21.4723 37.7174 21.7662C37.3964 22.0601 36.9613 22.2257 36.5073 22.2266H2.49328C2.26821 22.227 2.04528 22.1867 1.83727 22.108C1.62926 22.0293 1.44027 21.9138 1.28112 21.7681C1.12198 21.6224 0.995812 21.4494 0.909866 21.2589C0.823919 21.0685 0.779881 20.8644 0.780276 20.6584V2.34795C0.779881 2.1419 0.823919 1.9378 0.909866 1.74737C0.995812 1.55693 1.12198 1.3839 1.28112 1.2382C1.44027 1.0925 1.62926 0.976993 1.83727 0.898307C2.04528 0.819621 2.26821 0.779304 2.49328 0.779665H36.5073C36.9601 0.784189 37.3929 0.95087 37.7131 1.24401C38.0333 1.53714 38.2153 1.93342 38.2203 2.34795Z" fill="#F05B76"/>
<path opacity="0.1" d="M38.2203 2.34612V20.6565C38.2192 21.0722 38.0384 21.4705 37.7174 21.7644C37.3964 22.0583 36.9613 22.2239 36.5073 22.2248H2.49328C2.26805 22.2252 2.04495 22.1848 1.83681 22.106C1.62867 22.0272 1.43959 21.9115 1.28042 21.7656C1.12124 21.6197 0.995122 21.4465 0.909294 21.2559C0.823466 21.0652 0.779622 20.8609 0.780281 20.6547V19.9882H13.5643C19.3633 19.9717 24.9618 18.0438 29.3353 14.5574C33.7088 11.0711 36.5647 6.25941 37.3803 1.00305C37.6368 1.13969 37.8494 1.33576 37.9969 1.57152C38.1443 1.80729 38.2214 2.07444 38.2203 2.34612Z" fill="#010101"/>
<path d="M38.2203 4.90851H0.780273V9.24808H38.2203V4.90851Z" fill="#3F5176"/>
<path d="M13.4761 13.184H5.13109C5.03129 13.184 4.93246 13.202 4.84025 13.2369C4.74805 13.2719 4.66426 13.3231 4.59369 13.3878C4.52312 13.4524 4.46714 13.5291 4.42895 13.6135C4.39075 13.6979 4.37109 13.7884 4.37109 13.8798V18.2395C4.37109 18.424 4.45116 18.601 4.59369 18.7315C4.73622 18.862 4.92953 18.9353 5.13109 18.9353H13.4761C13.6777 18.9353 13.871 18.862 14.0135 18.7315C14.156 18.601 14.2361 18.424 14.2361 18.2395V13.8798C14.2361 13.6952 14.156 13.5182 14.0135 13.3878C13.871 13.2573 13.6777 13.184 13.4761 13.184Z" fill="#F5C560"/>
<path d="M34.6294 16.9999V18.6249C34.6286 18.707 34.5926 18.7855 34.5292 18.8436C34.4658 18.9016 34.38 18.9346 34.2904 18.9353H21.2094C21.1642 18.9359 21.1193 18.9283 21.0773 18.9131C21.0353 18.8978 20.997 18.8751 20.9646 18.8463C20.9322 18.8175 20.9063 18.7831 20.8884 18.7451C20.8705 18.7071 20.861 18.6663 20.8604 18.6249V16.9999C20.861 16.9585 20.8705 16.9177 20.8884 16.8797C20.9063 16.8417 20.9322 16.8073 20.9646 16.7785C20.997 16.7497 21.0353 16.727 21.0773 16.7117C21.1193 16.6965 21.1642 16.6889 21.2094 16.6895H34.2914C34.3808 16.6905 34.4664 16.7235 34.5296 16.7815C34.5927 16.8396 34.6286 16.9179 34.6294 16.9999ZM34.6294 12.88V14.5051C34.6286 14.5872 34.5926 14.6657 34.5292 14.7238C34.4658 14.7818 34.38 14.8147 34.2904 14.8154H26.3394C26.2942 14.8161 26.2493 14.8085 26.2073 14.7932C26.1653 14.778 26.127 14.7553 26.0946 14.7264C26.0622 14.6976 26.0363 14.6632 26.0184 14.6253C26.0005 14.5873 25.991 14.5464 25.9904 14.5051V12.8764C25.991 12.835 26.0005 12.7942 26.0184 12.7562C26.0363 12.7182 26.0622 12.6838 26.0946 12.655C26.127 12.6262 26.1653 12.6035 26.2073 12.5882C26.2493 12.573 26.2942 12.5654 26.3394 12.566H34.2914C34.3808 12.567 34.4664 12.6 34.5296 12.658C34.5927 12.7161 34.6286 12.7944 34.6294 12.8764V12.88Z" fill="#DAEAF8"/>
<path d="M36.507 22.937H2.493C1.83221 22.9353 1.19903 22.6942 0.731871 22.2663C0.264715 21.8385 0.00158332 21.2587 0 20.6537V2.34331C0.00237441 1.73882 0.265855 1.15973 0.732926 0.73246C1.2 0.30519 1.83273 0.0644328 2.493 0.0627441H36.507C37.1678 0.0644363 37.801 0.305571 38.2681 0.733434C38.7353 1.1613 38.9984 1.74109 39 2.34605V20.6565C38.9976 21.261 38.7341 21.84 38.2671 22.2673C37.8 22.6946 37.1673 22.9353 36.507 22.937ZM2.493 1.49096C2.24572 1.49144 2.00871 1.58159 1.83385 1.74167C1.659 1.90176 1.56053 2.11874 1.56 2.34514V20.6556C1.56053 20.8819 1.659 21.0989 1.83385 21.259C2.00871 21.4191 2.24572 21.5092 2.493 21.5097H36.507C36.7543 21.5092 36.9913 21.4191 37.1661 21.259C37.341 21.0989 37.4395 20.8819 37.44 20.6556V2.34514C37.4395 2.11874 37.341 1.90176 37.1661 1.74167C36.9913 1.58159 36.7543 1.49144 36.507 1.49096H2.493Z" fill="#2A3D66"/>
</svg>
