<svg xmlns="http://www.w3.org/2000/svg" width="24" height="23" fill="none"><path fill="#4285F4" d="M23.163 11.751a9.766 9.766 0 0 0-.24-2.329h-10.7v4.228H18.5a5.566 5.566 0 0 1-2.33 3.7l-.02.142 3.382 2.62.234.023a11.14 11.14 0 0 0 3.392-8.38"/><path fill="#34A853" d="M12.224 22.89a10.86 10.86 0 0 0 7.544-2.759l-3.595-2.785a6.743 6.743 0 0 1-3.949 1.135 6.859 6.859 0 0 1-6.48-4.734l-.135.011-3.514 2.723-.046.128a11.384 11.384 0 0 0 10.175 6.281Z"/><path fill="#FBBC05" d="M5.745 13.752a7.014 7.014 0 0 1-.38-2.253 7.37 7.37 0 0 1 .369-2.254l-.006-.15-3.562-2.766-.116.055a11.368 11.368 0 0 0 0 10.228l3.7-2.86"/><path fill="#EB4335" d="M12.224 4.511a6.314 6.314 0 0 1 4.405 1.7l3.215-3.139a10.946 10.946 0 0 0-7.62-2.966A11.384 11.384 0 0 0 2.05 6.384l3.684 2.861a6.886 6.886 0 0 1 6.491-4.734Z"/></svg>