<?xml version="1.0" encoding="UTF-8"?>
<svg version="1.1" xmlns="http://www.w3.org/2000/svg" width="40" height="25">
<path d="M0 0 C13.2 0 26.4 0 40 0 C40 8.25 40 16.5 40 25 C26.8 25 13.6 25 0 25 C0 16.75 0 8.5 0 0 Z " fill="#157BC3" transform="translate(0,0)"/>
<path d="M0 0 C6.93 0.33 13.86 0.66 21 1 C19.68 2.32 18.36 3.64 17 5 C16.67 4.01 16.34 3.02 16 2 C13.69 2 11.38 2 9 2 C9 4.64 9 7.28 9 10 C11.31 10 13.62 10 16 10 C16.33 8.68 16.66 7.36 17 6 C17.38671875 6.49242187 17.7734375 6.98484375 18.171875 7.4921875 C20.64196643 9.52948513 22.09109676 9.27500379 25.25 9.125 C29.67027339 8.99585523 33.65313662 9.22722429 38 10 C38 10.33 38 10.66 38 11 C37.10692139 11.02505615 36.21384277 11.0501123 35.29370117 11.07592773 C31.97814546 11.17110186 28.66276271 11.27033283 25.34741211 11.37231445 C23.91288997 11.41560793 22.47831816 11.45728699 21.04370117 11.49731445 C18.9808048 11.55515267 16.91815717 11.61880753 14.85546875 11.68359375 C12.99378052 11.73858032 12.99378052 11.73858032 11.09448242 11.79467773 C7.96446653 11.87144121 7.96446653 11.87144121 5 13 C5 13.99 5 14.98 5 16 C5.66 16 6.32 16 7 16 C7 15.34 7 14.68 7 14 C7.66 14 8.32 14 9 14 C8.34 15.32 7.68 16.64 7 18 C4.69 18 2.38 18 0 18 C0 12.06 0 6.12 0 0 Z " fill="#0970B8" transform="translate(0,7)"/>
<path d="M0 0 C2.31 0 4.62 0 7 0 C7.33 0.66 7.66 1.32 8 2 C8.99 1.34 9.98 0.68 11 0 C13.26171875 -0.1953125 13.26171875 -0.1953125 15.6875 -0.125 C16.89986328 -0.09792969 16.89986328 -0.09792969 18.13671875 -0.0703125 C19.05904297 -0.03550781 19.05904297 -0.03550781 20 0 C19.01 1.32 18.02 2.64 17 4 C18.32 5.32 19.64 6.64 21 8 C19.39667209 8.08121924 17.79215974 8.13929134 16.1875 8.1875 C15.29417969 8.22230469 14.40085937 8.25710937 13.48046875 8.29296875 C10.58352485 7.95081002 9.77444972 7.24606427 8 5 C7.67 5.99 7.34 6.98 7 8 C4.69 8 2.38 8 0 8 C0 5.36 0 2.72 0 0 Z " fill="#F8ED03" transform="translate(9,9)"/>
<path d="M0 0 C11.88 0 23.76 0 36 0 C35.01 0.99 34.02 1.98 33 3 C33 3.66 33 4.32 33 5 C32.01 5 31.02 5 30 5 C29.67 4.01 29.34 3.02 29 2 C26.69 2 24.38 2 22 2 C22 2.99 22 3.98 22 5 C20.68 5 19.36 5 18 5 C18 5.66 18 6.32 18 7 C13.71 7 9.42 7 5 7 C5.66 5.68 6.32 4.36 7 3 C6.34 3 5.68 3 5 3 C5 3.66 5 4.32 5 5 C4.34 5 3.68 5 3 5 C3 4.01 3 3.02 3 2 C2.01 1.34 1.02 0.68 0 0 Z " fill="#388ECB" transform="translate(2,18)"/>
<path d="M0 0 C2.475 0.495 2.475 0.495 5 1 C5 1.99 5 2.98 5 4 C5.99 4.66 6.98 5.32 8 6 C-3.88 6 -15.76 6 -28 6 C-28 5.67 -28 5.34 -28 5 C-21.4 5 -14.8 5 -8 5 C-8 4.01 -8 3.02 -8 2 C-5.33333333 2 -2.66666667 2 0 2 C0 1.34 0 0.68 0 0 Z " fill="#A0CBE7" transform="translate(30,2)"/>
<path d="M0 0 C5.94 0 11.88 0 18 0 C18 1.32 18 2.64 18 4 C18.99 4.33 19.98 4.66 21 5 C18.11584117 6.44207941 15.58278472 6.09394887 12.375 6.0625 C11.18648437 6.05347656 9.99796875 6.04445313 8.7734375 6.03515625 C7.85820312 6.02355469 6.94296875 6.01195312 6 6 C6 5.34 6 4.68 6 4 C7.32 3.34 8.64 2.68 10 2 C8.3603125 2.061875 8.3603125 2.061875 6.6875 2.125 C3 2 3 2 0 0 Z " fill="#046EBC" transform="translate(14,19)"/>
<path d="M0 0 C11.88 0 23.76 0 36 0 C35.01 0.99 34.02 1.98 33 3 C33 3.66 33 4.32 33 5 C32.01 5 31.02 5 30 5 C29.67 4.01 29.34 3.02 29 2 C19.43 1.67 9.86 1.34 0 1 C0 0.67 0 0.34 0 0 Z " fill="#99C7E5" transform="translate(2,18)"/>
<path d="M0 0 C2.64 0 5.28 0 8 0 C7.01 0.33 6.02 0.66 5 1 C5 1.99 5 2.98 5 4 C5.66 4 6.32 4 7 4 C7 3.34 7 2.68 7 2 C7.66 2 8.32 2 9 2 C8.34 3.32 7.68 4.64 7 6 C4.69 6 2.38 6 0 6 C0 4.02 0 2.04 0 0 Z " fill="#006DBC" transform="translate(0,19)"/>
<path d="M0 0 C1.65 0.33 3.3 0.66 5 1 C5 1.99 5 2.98 5 4 C5.99 4.66 6.98 5.32 8 6 C3.05 6 -1.9 6 -7 6 C-7 5.67 -7 5.34 -7 5 C-5.02 5 -3.04 5 -1 5 C-1 4.34 -1 3.68 -1 3 C-0.34 2.67 0.32 2.34 1 2 C0.67 1.34 0.34 0.68 0 0 Z " fill="#5EA5D6" transform="translate(30,2)"/>
<path d="M0 0 C2.97 0 5.94 0 9 0 C8 4 8 4 7 6 C6.01 5.67 5.02 5.34 4 5 C4.99 4.01 5.98 3.02 7 2 C4.69 1.67 2.38 1.34 0 1 C0 0.67 0 0.34 0 0 Z " fill="#1E7AA7" transform="translate(21,8)"/>
<path d="M0 0 C1.98 0 3.96 0 6 0 C6 0.99 6 1.98 6 3 C4.02 3 2.04 3 0 3 C0 2.01 0 1.02 0 0 Z " fill="#C4E0F0" transform="translate(18,20)"/>
<path d="M0 0 C2.475 0.495 2.475 0.495 5 1 C5 1.99 5 2.98 5 4 C3.68 4.33 2.36 4.66 1 5 C0.67 3.35 0.34 1.7 0 0 Z " fill="#82BBDF" transform="translate(30,2)"/>
</svg>
