<svg xmlns="http://www.w3.org/2000/svg" fill="none" viewBox="42.710437710437716 93.396 321.41414141414145 267.156" style="max-height: 500px" data--h-bstatus="0OBSERVED" width="321.41414141414145" height="267.156">
<path fill="black" d="M13.3213 10.6548C13.3213 11.6167 13.2261 12.4736 13.0356 13.2256C12.8452 13.9727 12.5669 14.6074 12.2007 15.1299C11.8345 15.6475 11.3877 16.043 10.8604 16.3164C10.333 16.585 9.73242 16.7192 9.05859 16.7192C8.36523 16.7192 7.75488 16.5972 7.22754 16.353V15.2031C7.80859 15.5303 8.42871 15.6939 9.08789 15.6939C9.56152 15.6939 9.98389 15.5962 10.355 15.4009C10.731 15.2056 11.0483 14.9224 11.3071 14.5513C11.5659 14.1753 11.7637 13.7139 11.9004 13.167C12.0371 12.6201 12.1055 11.9927 12.1055 11.2847H12.0762C11.627 12.188 10.8457 12.6397 9.73242 12.6397C9.2832 12.6397 8.87061 12.5615 8.49463 12.4053C8.11865 12.2441 7.79395 12.0195 7.52051 11.7315C7.24707 11.4385 7.03467 11.0918 6.8833 10.6914C6.73193 10.291 6.65625 9.84913 6.65625 9.36573C6.65625 8.84815 6.73926 8.37452 6.90527 7.94483C7.07617 7.51514 7.31055 7.14649 7.6084 6.83887C7.91113 6.52637 8.26758 6.28467 8.67773 6.11378C9.09277 5.94288 9.54443 5.85743 10.0327 5.85743C10.5601 5.85743 11.0264 5.96485 11.4316 6.17969C11.8418 6.38965 12.186 6.69971 12.4644 7.10987C12.7427 7.51514 12.9551 8.01563 13.1016 8.61133C13.248 9.20704 13.3213 9.88819 13.3213 10.6548ZM12.0249 9.57813C12.0249 9.17286 11.9712 8.8042 11.8638 8.47217C11.7612 8.14014 11.6172 7.85694 11.4316 7.62256C11.2461 7.38331 11.0239 7.2002 10.7651 7.07325C10.5112 6.94141 10.2329 6.87549 9.93018 6.87549C9.64209 6.87549 9.37354 6.93409 9.12451 7.05128C8.87549 7.16358 8.6582 7.32471 8.47266 7.53467C8.29199 7.73975 8.14795 7.98633 8.04053 8.27442C7.93799 8.55762 7.88672 8.86768 7.88672 9.2046C7.88672 9.57569 7.93555 9.90772 8.0332 10.2007C8.13574 10.4937 8.27979 10.7427 8.46533 10.9478C8.65088 11.148 8.87305 11.3018 9.13184 11.4092C9.39551 11.5166 9.68604 11.5703 10.0034 11.5703C10.2817 11.5703 10.543 11.519 10.7871 11.4165C11.0361 11.3091 11.251 11.1675 11.4316 10.9917C11.6172 10.811 11.7612 10.6011 11.8638 10.3618C11.9712 10.1177 12.0249 9.85645 12.0249 9.57813ZM15.687 10.501C15.4624 10.501 15.2695 10.4204 15.1084 10.2593C14.9521 10.0982 14.874 9.90528 14.874 9.68067C14.874 9.45606 14.9521 9.26563 15.1084 9.10938C15.2695 8.95313 15.4624 8.87501 15.687 8.87501C15.9165 8.87501 16.1118 8.95313 16.2729 9.10938C16.4341 9.26563 16.5146 9.45606 16.5146 9.68067C16.5146 9.90528 16.4341 10.0982 16.2729 10.2593C16.1118 10.4204 15.9165 10.501 15.687 10.501ZM15.687 16.6973C15.4624 16.6973 15.2695 16.6167 15.1084 16.4556C14.9521 16.2944 14.874 16.1016 14.874 15.877C14.874 15.6523 14.9521 15.4595 15.1084 15.2983C15.2695 15.1323 15.4624 15.0493 15.687 15.0493C15.9165 15.0493 16.1118 15.1323 16.2729 15.2983C16.4341 15.4595 16.5146 15.6523 16.5146 15.877C16.5146 16.1016 16.4341 16.2944 16.2729 16.4556C16.1118 16.6167 15.9165 16.6973 15.687 16.6973ZM23.5312 6.03321V12.9692H24.8789V14.0679H23.5312V16.5361H22.3447V14.0679H17.4082V13.0278C17.8672 12.5103 18.3311 11.9585 18.7998 11.3726C19.2686 10.7817 19.7153 10.1836 20.1401 9.57813C20.5698 8.97266 20.9653 8.36963 21.3267 7.76905C21.6929 7.16358 22.0005 6.58497 22.2495 6.03321H23.5312ZM18.7632 12.9692H22.3447V7.82764C21.9785 8.46729 21.6318 9.03858 21.3047 9.54151C20.9775 10.0444 20.665 10.501 20.3672 10.9111C20.0742 11.3213 19.7935 11.6924 19.5249 12.0244C19.2563 12.3565 19.0024 12.6714 18.7632 12.9692ZM30.6943 16.5361H29.4932V7.46143C29.4004 7.5542 29.2637 7.66163 29.083 7.7837C28.9072 7.90088 28.707 8.01807 28.4824 8.13526C28.2627 8.25245 28.0283 8.36231 27.7793 8.46485C27.5352 8.56739 27.2959 8.64795 27.0615 8.70655V7.49073C27.3252 7.41749 27.6035 7.31983 27.8965 7.19776C28.1943 7.07081 28.4849 6.93165 28.7681 6.78028C29.0562 6.62403 29.3271 6.4629 29.5811 6.29688C29.835 6.12598 30.0547 5.95997 30.2402 5.79883H30.6943V16.5361Z" data--h-bstatus="0OBSERVED"/>
<path fill="black" d="M386.303 13.0551C385.461 13.1245 384.613 13.007 383.83 12.7127C383.329 12.5075 382.906 12.1699 382.615 11.7432C382.254 11.1413 382.104 10.4519 382.187 9.7693V5.81242C382.104 5.12981 382.254 4.44041 382.615 3.83856C382.906 3.41183 383.329 3.07423 383.83 2.86902C384.613 2.57416 385.461 2.45669 386.303 2.52662H403.297C404.14 2.45687 404.989 2.57433 405.771 2.86902C406.273 3.07394 406.697 3.41158 406.987 3.83856C407.349 4.44025 407.499 5.12971 407.416 5.81242V9.7693C407.499 10.452 407.349 11.1415 406.987 11.7432C406.697 12.1694 406.275 12.5067 405.774 12.7118C404.992 13.006 404.143 13.1235 403.3 13.0542L386.303 13.0551ZM384.37 3.70032C384.063 3.8254 383.804 4.0321 383.627 4.29357C383.365 4.76992 383.263 5.30679 383.334 5.83623V9.79219C383.263 10.3216 383.365 10.8585 383.627 11.3348C383.805 11.5962 384.064 11.8031 384.37 11.929C384.986 12.1411 385.647 12.2213 386.302 12.1634H403.297C403.953 12.2214 404.614 12.1412 405.23 11.929C405.537 11.8031 405.796 11.5962 405.973 11.3348C406.236 10.8585 406.338 10.3216 406.266 9.79219V5.83531C406.338 5.30588 406.236 4.769 405.973 4.29266C405.796 4.03118 405.537 3.82448 405.23 3.6994C404.614 3.48629 403.953 3.40579 403.297 3.46411H386.303C385.648 3.40598 384.986 3.4868 384.37 3.70032ZM408.56 5.92869C408.56 5.92869 410.28 6.62724 410.28 7.75973C410.28 8.89223 408.56 9.59078 408.56 9.59078V5.92869Z" data--h-bstatus="0OBSERVED"/>
<path fill="black" d="M402.18 4.30436C402.83 4.2455 403.486 4.29955 404.114 4.46366C404.448 4.59544 404.727 4.81957 404.914 5.10452C405.118 5.59622 405.187 6.12634 405.114 6.64809V8.97992C405.187 9.50167 405.118 10.0318 404.914 10.5235C404.727 10.8084 404.448 11.0326 404.114 11.1644C403.486 11.3285 402.83 11.3825 402.18 11.3237H387.415C386.765 11.3824 386.109 11.328 385.48 11.1634C385.147 11.0317 384.867 10.8075 384.68 10.5226C384.476 10.0312 384.408 9.50137 384.48 8.97992V6.64809C384.408 6.12634 384.476 5.59622 384.68 5.10452C384.867 4.81957 385.147 4.59544 385.48 4.46366C386.109 4.29941 386.765 4.24536 387.415 4.30436H402.18Z" data--h-bstatus="0OBSERVED"/>
<path fill="black" d="M345.34 12.7492C345.087 12.7182 344.85 12.6199 344.657 12.4664C344.465 12.3128 344.327 12.111 344.259 11.8858C344.231 11.7242 344.222 11.5603 344.232 11.3969V6.54468C344.222 6.381 344.231 6.21685 344.259 6.05488C344.327 5.82992 344.465 5.62823 344.658 5.47489C344.85 5.32155 345.087 5.22333 345.34 5.19246C345.543 5.17077 345.748 5.16373 345.952 5.1714C346.156 5.16368 346.361 5.17072 346.565 5.19246C346.817 5.22333 347.055 5.32155 347.247 5.47489C347.439 5.62823 347.578 5.82992 347.646 6.05488C347.673 6.21685 347.682 6.381 347.673 6.54468V11.3969C347.682 11.5603 347.673 11.7242 347.646 11.8858C347.578 12.111 347.439 12.3128 347.247 12.4664C347.055 12.6199 346.818 12.7182 346.565 12.7492C346.361 12.7703 346.156 12.7774 345.952 12.7702C345.748 12.7774 345.543 12.7703 345.34 12.7492ZM340.065 12.7492C339.812 12.7182 339.575 12.6199 339.382 12.4664C339.19 12.3128 339.052 12.111 338.984 11.8858C338.956 11.7245 338.946 11.561 338.954 11.3979V8.6513C338.945 8.48795 338.953 8.32416 338.98 8.16241C339.048 7.9366 339.187 7.73415 339.38 7.58041C339.573 7.42668 339.811 7.32849 340.065 7.29816C340.268 7.27698 340.473 7.26994 340.678 7.2771C340.882 7.26997 341.087 7.277 341.29 7.29816C341.543 7.3291 341.78 7.42745 341.972 7.58096C342.164 7.73448 342.303 7.93637 342.371 8.16149C342.398 8.32316 342.407 8.487 342.398 8.65038V11.3969C342.407 11.5603 342.398 11.7242 342.371 11.8858C342.303 12.111 342.164 12.3128 341.972 12.4664C341.78 12.6199 341.543 12.7182 341.29 12.7492C341.087 12.7703 340.882 12.7774 340.678 12.7702C340.473 12.7774 340.268 12.7703 340.065 12.7492ZM334.565 12.7492C334.311 12.7189 334.073 12.6209 333.88 12.4673C333.687 12.3137 333.548 12.1115 333.48 11.8858C333.453 11.7244 333.445 11.5609 333.454 11.3979V10.4823C333.445 10.3187 333.453 10.1546 333.48 9.99254C333.548 9.76745 333.687 9.56566 333.879 9.41231C334.071 9.25896 334.309 9.16082 334.562 9.13012C334.765 9.10837 334.97 9.10133 335.174 9.10906C335.378 9.10136 335.583 9.1084 335.787 9.13012C336.039 9.16099 336.277 9.2592 336.469 9.41254C336.661 9.56588 336.8 9.76758 336.868 9.99254C336.894 10.1546 336.903 10.3187 336.894 10.4823V11.3979C336.903 11.5612 336.894 11.725 336.868 11.8867C336.8 12.1119 336.661 12.3138 336.469 12.4673C336.277 12.6208 336.04 12.7191 335.787 12.7501C335.583 12.7712 335.378 12.7783 335.174 12.7711C334.969 12.778 334.765 12.7707 334.562 12.7492H334.565ZM350.733 12.7052C350.48 12.6744 350.243 12.5761 350.051 12.4228C349.858 12.2695 349.72 12.0678 349.652 11.8428C349.624 11.6808 349.615 11.5167 349.625 11.353V4.30441C349.615 4.14072 349.624 3.97657 349.652 3.8146C349.72 3.59003 349.858 3.38861 350.049 3.2353C350.241 3.082 350.478 2.98356 350.73 2.95218C350.933 2.93049 351.138 2.92345 351.342 2.93113C351.546 2.92345 351.751 2.93049 351.954 2.95218C352.206 2.98305 352.444 3.08127 352.636 3.23461C352.828 3.38795 352.967 3.58965 353.035 3.8146C353.062 3.97657 353.071 4.14072 353.062 4.30441V11.3539C353.071 11.5176 353.062 11.6817 353.035 11.8437C352.967 12.0687 352.828 12.2704 352.636 12.4237C352.444 12.5771 352.206 12.6753 351.954 12.7061C351.751 12.7278 351.546 12.7349 351.342 12.7272C351.138 12.7349 350.933 12.7278 350.73 12.7061L350.733 12.7052Z" data--h-bstatus="0OBSERVED"/>
<path fill="black" d="M367.625 12.9148C367.531 12.9156 367.44 12.885 367.368 12.8287L365.059 10.9684C365.025 10.9425 364.998 10.9101 364.979 10.8734C364.96 10.8366 364.95 10.7965 364.95 10.756C364.952 10.7151 364.964 10.6752 364.985 10.639C365.006 10.6027 365.035 10.5711 365.07 10.5463C365.817 10.0604 366.71 9.79924 367.625 9.79924C368.541 9.79924 369.434 10.0604 370.18 10.5463C370.216 10.5711 370.245 10.6027 370.266 10.639C370.286 10.6752 370.298 10.7151 370.3 10.756C370.3 10.7965 370.291 10.8366 370.272 10.8734C370.253 10.9101 370.225 10.9425 370.191 10.9684L367.881 12.8287C367.81 12.8848 367.719 12.9154 367.625 12.9148ZM371.681 9.62713C371.591 9.62792 371.504 9.60008 371.434 9.54839C370.344 8.77864 369.002 8.36602 367.625 8.37653C366.249 8.36685 364.909 8.77942 363.819 9.54839C363.748 9.59962 363.659 9.62699 363.568 9.62599C363.477 9.62499 363.39 9.59569 363.319 9.5429L361.983 8.46625C361.949 8.44014 361.922 8.40751 361.904 8.37068C361.885 8.33385 361.876 8.29374 361.877 8.25322C361.877 8.21271 361.887 8.17279 361.907 8.13634C361.926 8.09988 361.954 8.06779 361.988 8.04236C363.592 6.88013 365.581 6.25559 367.626 6.27266C369.671 6.25559 371.661 6.88013 373.264 8.04236C373.299 8.06779 373.327 8.09988 373.346 8.13634C373.365 8.17279 373.376 8.21271 373.376 8.25322C373.376 8.29374 373.367 8.33385 373.349 8.37068C373.33 8.40751 373.303 8.44014 373.269 8.46625L371.935 9.5429C371.865 9.59814 371.774 9.62806 371.681 9.62713ZM360.495 7.12593C360.403 7.12714 360.313 7.09754 360.242 7.04261L358.903 5.96504C358.87 5.93927 358.843 5.90705 358.824 5.87067C358.806 5.83429 358.796 5.79463 358.796 5.75448C358.796 5.71432 358.806 5.67466 358.824 5.63828C358.843 5.6019 358.87 5.56968 358.903 5.54391C361.364 3.70652 364.449 2.71683 367.624 2.74699C370.798 2.71748 373.883 3.70713 376.342 5.54391C376.376 5.56943 376.404 5.60137 376.423 5.63755C376.443 5.67373 376.453 5.7133 376.454 5.75356C376.454 5.7938 376.444 5.83345 376.425 5.8699C376.406 5.90636 376.38 5.93878 376.346 5.96504L375.009 7.04261C374.939 7.09541 374.85 7.12426 374.759 7.12426C374.668 7.12426 374.58 7.09541 374.509 7.04261C372.562 5.60278 370.128 4.82849 367.625 4.85269C365.122 4.83094 362.688 5.60781 360.741 7.04994C360.672 7.10085 360.584 7.12774 360.495 7.12593Z" data--h-bstatus="0OBSERVED"/>
<g filter="url(#filter0_d_1_2708)" data--h-bstatus="0OBSERVED">
<path stroke="#DEDFDF" d="M430.5 76.9253H0.5" data--h-bstatus="0OBSERVED"/>
</g>
<path stroke="#DEDFDF" d="M430.5 76.9253H0.5" data--h-bstatus="0OBSERVED"/>
<path fill="#204F38" d="M155.888 57.3987C155.888 55.7347 156.248 54.2547 156.968 52.9587C157.688 51.6467 158.688 50.6307 159.968 49.9107C161.264 49.1747 162.728 48.8067 164.36 48.8067C166.36 48.8067 168.072 49.3347 169.496 50.3907C170.92 51.4467 171.872 52.8867 172.352 54.7107H167.84C167.504 54.0067 167.024 53.4707 166.4 53.1027C165.792 52.7347 165.096 52.5507 164.312 52.5507C163.048 52.5507 162.024 52.9907 161.24 53.8707C160.456 54.7507 160.064 55.9267 160.064 57.3987C160.064 58.8707 160.456 60.0467 161.24 60.9267C162.024 61.8067 163.048 62.2467 164.312 62.2467C165.096 62.2467 165.792 62.0627 166.4 61.6947C167.024 61.3267 167.504 60.7907 167.84 60.0867H172.352C171.872 61.9107 170.92 63.3507 169.496 64.4067C168.072 65.4467 166.36 65.9667 164.36 65.9667C162.728 65.9667 161.264 65.6067 159.968 64.8867C158.688 64.1507 157.688 63.1347 156.968 61.8387C156.248 60.5427 155.888 59.0627 155.888 57.3987ZM183.097 52.3107C184.633 52.3107 185.865 52.8227 186.793 53.8467C187.721 54.8547 188.185 56.2467 188.185 58.0227V65.8467H184.105V58.5747C184.105 57.6787 183.873 56.9827 183.409 56.4867C182.945 55.9907 182.321 55.7427 181.537 55.7427C180.753 55.7427 180.129 55.9907 179.665 56.4867C179.201 56.9827 178.969 57.6787 178.969 58.5747V65.8467H174.865V48.0867H178.969V54.2547C179.385 53.6627 179.953 53.1907 180.673 52.8387C181.393 52.4867 182.201 52.3107 183.097 52.3107ZM203.661 58.9347C203.661 59.3187 203.637 59.7187 203.589 60.1347H194.301C194.365 60.9667 194.629 61.6067 195.093 62.0547C195.573 62.4867 196.157 62.7027 196.845 62.7027C197.869 62.7027 198.581 62.2707 198.981 61.4067H203.349C203.125 62.2867 202.717 63.0787 202.125 63.7827C201.549 64.4867 200.821 65.0387 199.941 65.4387C199.061 65.8387 198.077 66.0387 196.989 66.0387C195.677 66.0387 194.509 65.7587 193.485 65.1987C192.461 64.6387 191.661 63.8387 191.085 62.7987C190.509 61.7587 190.221 60.5427 190.221 59.1507C190.221 57.7587 190.501 56.5427 191.061 55.5027C191.637 54.4627 192.437 53.6627 193.461 53.1027C194.485 52.5427 195.661 52.2627 196.989 52.2627C198.285 52.2627 199.437 52.5347 200.445 53.0787C201.453 53.6227 202.237 54.3987 202.797 55.4067C203.373 56.4147 203.661 57.5907 203.661 58.9347ZM199.461 57.8547C199.461 57.1507 199.221 56.5907 198.741 56.1747C198.261 55.7587 197.661 55.5507 196.941 55.5507C196.253 55.5507 195.669 55.7507 195.189 56.1507C194.725 56.5507 194.437 57.1187 194.325 57.8547H199.461ZM205.01 59.1507C205.01 57.7587 205.29 56.5427 205.85 55.5027C206.426 54.4627 207.218 53.6627 208.226 53.1027C209.25 52.5427 210.418 52.2627 211.73 52.2627C213.41 52.2627 214.81 52.7027 215.93 53.5827C217.066 54.4627 217.81 55.7027 218.162 57.3027H213.794C213.426 56.2787 212.714 55.7667 211.658 55.7667C210.906 55.7667 210.306 56.0627 209.858 56.6547C209.41 57.2307 209.186 58.0627 209.186 59.1507C209.186 60.2387 209.41 61.0787 209.858 61.6707C210.306 62.2467 210.906 62.5347 211.658 62.5347C212.714 62.5347 213.426 62.0227 213.794 60.9987H218.162C217.81 62.5667 217.066 63.7987 215.93 64.6947C214.794 65.5907 213.394 66.0387 211.73 66.0387C210.418 66.0387 209.25 65.7587 208.226 65.1987C207.218 64.6387 206.426 63.8387 205.85 62.7987C205.29 61.7587 205.01 60.5427 205.01 59.1507ZM228.541 65.8467L224.461 60.2307V65.8467H220.357V48.0867H224.461V57.9027L228.517 52.4547H233.581L228.013 59.1747L233.629 65.8467H228.541ZM241.289 66.0387C239.977 66.0387 238.793 65.7587 237.737 65.1987C236.697 64.6387 235.873 63.8387 235.265 62.7987C234.673 61.7587 234.377 60.5427 234.377 59.1507C234.377 57.7747 234.681 56.5667 235.289 55.5267C235.897 54.4707 236.729 53.6627 237.785 53.1027C238.841 52.5427 240.025 52.2627 241.337 52.2627C242.649 52.2627 243.833 52.5427 244.889 53.1027C245.945 53.6627 246.777 54.4707 247.385 55.5267C247.993 56.5667 248.297 57.7747 248.297 59.1507C248.297 60.5267 247.985 61.7427 247.361 62.7987C246.753 63.8387 245.913 64.6387 244.841 65.1987C243.785 65.7587 242.601 66.0387 241.289 66.0387ZM241.289 62.4867C242.073 62.4867 242.737 62.1987 243.281 61.6227C243.841 61.0467 244.121 60.2227 244.121 59.1507C244.121 58.0787 243.849 57.2547 243.305 56.6787C242.777 56.1027 242.121 55.8147 241.337 55.8147C240.537 55.8147 239.873 56.1027 239.345 56.6787C238.817 57.2387 238.553 58.0627 238.553 59.1507C238.553 60.2227 238.809 61.0467 239.321 61.6227C239.849 62.1987 240.505 62.4867 241.289 62.4867ZM263.698 52.4547V65.8467H259.594V64.0227C259.178 64.6147 258.61 65.0947 257.89 65.4627C257.186 65.8147 256.402 65.9907 255.538 65.9907C254.514 65.9907 253.61 65.7667 252.826 65.3187C252.042 64.8547 251.434 64.1907 251.002 63.3267C250.57 62.4627 250.354 61.4467 250.354 60.2787V52.4547H254.434V59.7267C254.434 60.6227 254.666 61.3187 255.13 61.8147C255.594 62.3107 256.218 62.5587 257.002 62.5587C257.802 62.5587 258.434 62.3107 258.898 61.8147C259.362 61.3187 259.594 60.6227 259.594 59.7267V52.4547H263.698ZM274.11 62.3667V65.8467H272.022C270.534 65.8467 269.374 65.4867 268.542 64.7667C267.71 64.0307 267.294 62.8387 267.294 61.1907V55.8627H265.662V52.4547H267.294V49.1907H271.398V52.4547H274.086V55.8627H271.398V61.2387C271.398 61.6387 271.494 61.9267 271.686 62.1027C271.878 62.2787 272.198 62.3667 272.646 62.3667H274.11Z" data--h-bstatus="0OBSERVED"/>
<path fill="black" d="M17.3192 54.3176L26.2562 46.142C26.5724 45.8517 26.7496 45.4583 26.7489 45.0484C26.7483 44.6385 26.5698 44.2456 26.2527 43.9562C25.9357 43.6667 25.506 43.5045 25.0583 43.5051C24.6105 43.5057 24.1814 43.6691 23.8652 43.9594L13.7402 53.219C13.4343 53.5001 13.2585 53.8784 13.2494 54.2752C13.2403 54.6719 13.3985 55.0567 13.6912 55.3494L23.8582 64.6813C24.1744 64.9716 24.6035 65.135 25.0513 65.1356C25.499 65.1362 25.9287 64.9739 26.2457 64.6845C26.5628 64.395 26.7413 64.0022 26.7419 63.5922C26.7426 63.1823 26.5654 62.789 26.2492 62.4987L17.3192 54.3176Z" data--h-bstatus="0OBSERVED"/>
<g opacity="0.4" style="mix-blend-mode:multiply" data--h-bstatus="0OBSERVED">
<path fill="white" d="M184.892 359.078C211.134 359.078 232.408 339.601 232.408 315.576C232.408 291.55 211.134 272.074 184.892 272.074C158.65 272.074 137.376 291.55 137.376 315.576C137.376 339.601 158.65 359.078 184.892 359.078Z" data--h-bstatus="0OBSERVED"/>
<path fill="#FAFDF7" d="M186.118 358.218C212.361 358.074 233.507 338.48 233.349 314.455C233.192 290.43 211.791 271.07 185.548 271.214C159.306 271.358 138.16 290.952 138.317 314.977C138.475 339.002 159.876 358.362 186.118 358.218Z" data--h-bstatus="0OBSERVED"/>
<path fill="#F5FCEF" d="M187.295 357.384C213.535 357.103 234.559 337.4 234.252 313.376C233.945 289.352 212.424 270.105 186.184 270.386C159.943 270.667 138.92 290.37 139.227 314.394C139.533 338.417 161.054 357.665 187.295 357.384Z" data--h-bstatus="0OBSERVED"/>
<path fill="#EFFAE7" d="M188.518 356.556C214.76 356.124 235.651 336.297 235.178 312.271C234.706 288.246 213.049 269.12 186.807 269.553C160.565 269.985 139.674 289.812 140.146 313.837C140.619 337.863 162.275 356.989 188.518 356.556Z" data--h-bstatus="0OBSERVED"/>
<path fill="#EAF8DF" d="M189.78 355.682C216.014 355.078 236.746 335.118 236.087 311.101C235.427 287.083 213.626 268.102 187.392 268.706C161.158 269.309 140.425 289.269 141.085 313.287C141.744 337.305 163.546 356.286 189.78 355.682Z" data--h-bstatus="0OBSERVED"/>
<path fill="#E5F6D7" d="M191.059 354.828C217.287 354.044 237.856 333.943 237 309.93C236.144 285.917 214.188 267.087 187.959 267.87C161.731 268.654 141.163 288.755 142.018 312.768C142.874 336.78 164.83 355.611 191.059 354.828Z" data--h-bstatus="0OBSERVED"/>
<path fill="#E0F5D0" d="M192.387 353.942C218.603 352.957 238.984 332.701 237.908 308.7C236.832 284.698 214.707 266.04 188.491 267.025C162.275 268.01 141.895 288.265 142.971 312.267C144.047 336.268 166.171 354.927 192.387 353.942Z" data--h-bstatus="0OBSERVED"/>
<path fill="#DAF3C8" d="M193.674 353.145C219.89 351.968 240.1 331.556 238.814 307.555C237.528 283.554 215.233 265.051 189.017 266.228C162.801 267.406 142.591 287.817 143.877 311.818C145.163 335.82 167.458 354.322 193.674 353.145Z" data--h-bstatus="0OBSERVED"/>
<path fill="#D5F1C0" d="M195.082 352.238C221.278 350.822 241.261 330.232 239.714 306.248C238.168 282.264 215.677 263.97 189.48 265.386C163.284 266.802 143.301 287.392 144.847 311.376C146.394 335.36 168.885 353.654 195.082 352.238Z" data--h-bstatus="0OBSERVED"/>
<path fill="#D0EFB8" d="M196.495 351.364C222.674 349.7 242.423 328.922 240.606 304.954C238.789 280.986 216.093 262.905 189.914 264.569C163.734 266.233 143.985 287.011 145.802 310.979C147.62 334.947 170.315 353.028 196.495 351.364Z" data--h-bstatus="0OBSERVED"/>
<path fill="#CBEEB0" d="M197.952 350.481C224.109 348.547 243.601 327.566 241.489 303.619C239.376 279.671 216.459 261.826 190.302 263.759C164.145 265.693 144.653 286.674 146.765 310.622C148.878 334.569 171.795 352.415 197.952 350.481Z" data--h-bstatus="0OBSERVED"/>
<path fill="#C6ECA8" d="M199.461 349.589C225.59 347.359 244.798 326.16 242.363 302.238C239.928 278.316 216.772 260.731 190.643 262.96C164.514 265.19 145.306 286.389 147.741 310.311C150.176 334.233 173.332 351.818 199.461 349.589Z" data--h-bstatus="0OBSERVED"/>
<path fill="#C0EAA0" d="M200.984 348.667C227.069 346.12 245.96 324.696 243.178 300.815C240.396 276.933 216.995 259.638 190.911 262.185C164.826 264.732 145.935 286.156 148.716 310.037C151.498 333.918 174.899 351.213 200.984 348.667Z" data--h-bstatus="0OBSERVED"/>
<path fill="#BBE898" d="M202.662 347.799C228.72 344.892 247.271 323.195 244.096 299.338C240.92 275.481 217.222 258.497 191.163 261.404C165.104 264.311 146.554 286.008 149.729 309.865C152.904 333.723 176.603 350.706 202.662 347.799Z" data--h-bstatus="0OBSERVED"/>
<path fill="#B6E790" d="M204.347 346.829C230.341 343.529 248.491 321.562 244.887 297.765C241.283 273.967 217.289 257.35 191.295 260.649C165.302 263.949 147.151 285.916 150.755 309.714C154.36 333.511 178.353 350.128 204.347 346.829Z" data--h-bstatus="0OBSERVED"/>
<path fill="#B1E588" d="M206.127 345.867C232.051 342.134 249.761 319.869 245.685 296.135C241.608 272.401 217.288 256.187 191.364 259.919C165.44 263.651 147.73 285.917 151.806 309.651C155.883 333.385 180.203 349.599 206.127 345.867Z" data--h-bstatus="0OBSERVED"/>
<path fill="#ABE381" d="M207.998 344.876C233.834 340.664 251.05 318.076 246.45 294.422C241.85 270.769 217.177 255.008 191.341 259.219C165.505 263.43 148.289 286.019 152.889 309.672C157.489 333.326 182.162 349.087 207.998 344.876Z" data--h-bstatus="0OBSERVED"/>
<path fill="#A6E179" d="M209.97 343.848C235.696 339.107 252.353 316.17 247.174 292.617C241.995 269.064 216.942 253.814 191.215 258.555C165.489 263.297 148.832 286.234 154.011 309.787C159.19 333.34 184.244 348.589 209.97 343.848Z" data--h-bstatus="0OBSERVED"/>
<path fill="#A1E071" d="M212.069 342.76C237.655 337.427 253.674 314.113 247.848 290.689C242.023 267.264 216.558 252.598 190.972 257.932C165.385 263.265 149.366 286.579 155.192 310.003C161.018 333.428 186.482 348.094 212.069 342.76Z" data--h-bstatus="0OBSERVED"/>
<path fill="#9CDE69" d="M214.27 341.643C239.686 335.661 254.993 311.948 248.46 288.68C241.926 265.411 216.026 251.397 190.61 257.379C165.194 263.36 149.886 287.073 156.42 310.342C162.954 333.61 188.854 347.624 214.27 341.643Z" data--h-bstatus="0OBSERVED"/>
<path fill="#96DC61" d="M216.62 340.44C241.821 333.736 256.314 309.599 248.992 286.528C241.67 263.457 215.306 250.188 190.106 256.891C164.905 263.594 150.412 287.731 157.734 310.803C165.056 333.874 191.42 347.143 216.62 340.44Z" data--h-bstatus="0OBSERVED"/>
<path fill="#91DA59" d="M219.118 339.148C244.049 331.649 257.62 307.066 249.43 284.241C241.239 261.416 214.388 248.992 189.457 256.49C164.525 263.989 150.954 288.572 159.145 311.397C167.336 334.222 194.187 346.646 219.118 339.148Z" data--h-bstatus="0OBSERVED"/>
<path fill="#8CD951" d="M221.713 337.735C246.302 329.374 258.832 304.347 249.7 281.835C240.567 259.323 213.231 247.851 188.642 256.212C164.053 264.573 151.522 289.6 160.655 312.112C169.787 334.624 197.124 346.095 221.713 337.735Z" data--h-bstatus="0OBSERVED"/>
<path fill="#87D749" d="M224.597 336.23C248.793 326.908 260.153 301.394 249.971 279.242C239.789 257.091 211.92 246.69 187.725 256.012C163.529 265.334 152.169 290.848 162.351 313C172.533 335.151 200.402 345.551 224.597 336.23Z" data--h-bstatus="0OBSERVED"/>
<path fill="#82D541" d="M227.472 334.564C251.169 324.242 261.239 298.287 249.964 276.592C238.689 254.897 210.339 245.678 186.642 256C162.945 266.323 152.875 292.278 164.15 313.973C175.425 335.668 203.775 344.887 227.472 334.564Z" data--h-bstatus="0OBSERVED"/>
<path fill="#7CD339" d="M230.493 332.748C253.603 321.365 262.26 294.986 249.827 273.828C237.395 252.67 208.582 244.745 185.471 256.127C162.361 267.509 153.704 293.888 166.137 315.046C178.569 336.204 207.382 344.13 230.493 332.748Z" data--h-bstatus="0OBSERVED"/>
<path fill="#77D232" d="M242.505 324.352C261.061 307.363 261.061 279.82 242.505 262.831C223.949 245.842 193.863 245.842 175.307 262.831C156.751 279.82 156.751 307.363 175.307 324.352C193.863 341.341 223.949 341.341 242.505 324.352Z" data--h-bstatus="0OBSERVED"/>
<path fill="#72D02A" d="M243.428 323.507C261.984 306.519 261.984 278.975 243.428 261.986C224.871 244.998 194.786 244.998 176.23 261.986C157.674 278.975 157.674 306.519 176.23 323.507C194.786 340.496 224.871 340.496 243.428 323.507Z" data--h-bstatus="0OBSERVED"/>
<path fill="#6DCE22" d="M244.351 322.661C262.907 305.672 262.907 278.129 244.351 261.14C225.795 244.151 195.71 244.151 177.154 261.14C158.597 278.129 158.597 305.672 177.154 322.661C195.71 339.649 225.795 339.649 244.351 322.661Z" data--h-bstatus="0OBSERVED"/>
<path fill="#67CC1A" d="M245.274 321.815C263.83 304.826 263.83 277.283 245.274 260.294C226.718 243.305 196.633 243.305 178.076 260.294C159.52 277.283 159.52 304.826 178.076 321.815C196.633 338.803 226.718 338.803 245.274 321.815Z" data--h-bstatus="0OBSERVED"/>
<path fill="#62CB12" d="M246.198 320.97C264.754 303.982 264.754 276.438 246.198 259.449C227.642 242.461 197.556 242.461 179 259.449C160.444 276.438 160.444 303.982 179 320.97C197.556 337.959 227.642 337.959 246.198 320.97Z" data--h-bstatus="0OBSERVED"/>
<path fill="#5DC90A" d="M247.123 320.124C265.679 303.136 265.679 275.592 247.123 258.603C228.567 241.615 198.481 241.615 179.925 258.603C161.369 275.592 161.369 303.136 179.925 320.124C198.481 337.113 228.567 337.113 247.123 320.124Z" data--h-bstatus="0OBSERVED"/>
</g>
<path fill="#5DC90A" d="M247.123 320.124C265.679 303.136 265.679 275.592 247.123 258.603C228.567 241.615 198.481 241.615 179.925 258.603C161.369 275.592 161.369 303.136 179.925 320.124C198.481 337.113 228.567 337.113 247.123 320.124Z" data--h-bstatus="0OBSERVED"/>
<path fill="white" d="M213.524 333.782C203.928 333.782 194.548 331.177 186.569 326.297C178.59 321.416 172.372 314.479 168.699 306.362C165.027 298.246 164.066 289.315 165.938 280.699C167.81 272.082 172.431 264.168 179.216 257.955C186.001 251.743 194.646 247.513 204.057 245.799C213.469 244.085 223.224 244.964 232.089 248.326C240.955 251.688 248.532 257.381 253.863 264.686C259.194 271.991 262.04 280.578 262.04 289.364C262.025 301.14 256.909 312.43 247.814 320.757C238.719 329.084 226.387 333.768 213.524 333.782ZM213.524 246.777C204.324 246.777 195.33 249.275 187.68 253.954C180.03 258.634 174.068 265.285 170.547 273.067C167.026 280.848 166.105 289.411 167.9 297.673C169.694 305.934 174.125 313.522 180.63 319.478C187.136 325.434 195.425 329.49 204.448 331.134C213.472 332.777 222.825 331.933 231.325 328.71C239.825 325.486 247.09 320.028 252.201 313.024C257.312 306.021 260.04 297.787 260.04 289.364C260.026 278.073 255.121 267.248 246.4 259.265C237.68 251.281 225.856 246.79 213.524 246.777Z" data--h-bstatus="0OBSERVED"/>
<path fill="black" d="M208.651 338.014C197.618 337.979 186.928 334.5 178.347 328.152C169.765 321.804 163.805 312.966 161.451 303.098C161.409 302.92 161.446 302.734 161.555 302.581C161.663 302.428 161.833 302.321 162.027 302.283C162.222 302.245 162.425 302.279 162.592 302.378C162.759 302.477 162.876 302.633 162.918 302.811C164.298 308.672 167.006 314.202 170.867 319.045C174.728 323.888 179.655 327.936 185.331 330.927C191.007 333.918 197.305 335.785 203.819 336.409C210.332 337.032 216.916 336.398 223.145 334.546C223.239 334.517 223.338 334.505 223.437 334.512C223.536 334.518 223.633 334.542 223.721 334.583C223.81 334.623 223.889 334.68 223.954 334.749C224.019 334.817 224.068 334.897 224.099 334.984C224.129 335.07 224.141 335.161 224.133 335.252C224.125 335.342 224.098 335.43 224.052 335.511C224.007 335.592 223.944 335.664 223.868 335.722C223.792 335.781 223.704 335.825 223.61 335.852C218.779 337.289 213.73 338.019 208.651 338.014ZM240.465 326.825C240.313 326.824 240.166 326.782 240.041 326.703C239.916 326.624 239.821 326.513 239.767 326.383C239.712 326.254 239.702 326.113 239.738 325.978C239.773 325.843 239.852 325.721 239.965 325.628C244.825 321.61 248.712 316.704 251.374 311.227C254.036 305.749 255.414 299.821 255.42 293.826V293.65C255.418 293.468 255.496 293.293 255.636 293.163C255.776 293.033 255.966 292.959 256.165 292.958C256.363 292.958 256.553 293.03 256.693 293.157C256.834 293.285 256.913 293.459 256.915 293.64V293.823C256.909 300.011 255.487 306.128 252.739 311.782C249.992 317.435 245.981 322.499 240.965 326.645C240.828 326.76 240.65 326.824 240.465 326.825ZM161.134 294.557C161.038 294.562 160.942 294.549 160.852 294.519C160.762 294.49 160.679 294.443 160.609 294.383C160.539 294.324 160.483 294.251 160.444 294.171C160.406 294.091 160.385 294.004 160.384 293.916V293.825C160.39 287.653 161.805 281.551 164.539 275.909C167.273 270.267 171.264 265.211 176.258 261.065C176.33 261.001 176.416 260.952 176.509 260.919C176.603 260.887 176.703 260.871 176.803 260.875C176.903 260.878 177.001 260.9 177.092 260.938C177.183 260.977 177.265 261.032 177.332 261.1C177.399 261.168 177.451 261.247 177.484 261.334C177.517 261.421 177.531 261.512 177.525 261.604C177.519 261.695 177.492 261.785 177.448 261.867C177.403 261.949 177.341 262.022 177.265 262.082C172.426 266.1 168.558 270.999 165.909 276.465C163.26 281.932 161.889 287.845 161.883 293.826C161.884 294.012 161.808 294.192 161.668 294.329C161.529 294.465 161.337 294.547 161.134 294.557ZM255.097 285.296C254.926 285.295 254.76 285.241 254.626 285.143C254.493 285.044 254.401 284.907 254.365 284.754C252.972 278.895 250.251 273.369 246.38 268.533C242.508 263.697 237.571 259.659 231.888 256.678C226.205 253.698 219.902 251.843 213.387 251.232C206.872 250.621 200.29 251.269 194.065 253.133C193.971 253.162 193.871 253.174 193.772 253.168C193.673 253.162 193.577 253.138 193.488 253.098C193.399 253.057 193.32 253.001 193.255 252.932C193.19 252.864 193.14 252.784 193.109 252.697C193.078 252.611 193.066 252.52 193.074 252.429C193.082 252.339 193.109 252.25 193.155 252.169C193.2 252.089 193.262 252.017 193.338 251.958C193.414 251.9 193.502 251.855 193.597 251.828C200.021 249.904 206.815 249.236 213.539 249.866C220.263 250.497 226.768 252.412 232.633 255.487C238.498 258.563 243.593 262.731 247.588 267.723C251.584 272.714 254.391 278.417 255.829 284.464C255.85 284.552 255.851 284.643 255.834 284.732C255.816 284.82 255.78 284.905 255.727 284.981C255.673 285.057 255.604 285.122 255.523 285.174C255.442 285.225 255.351 285.261 255.255 285.28C255.203 285.29 255.15 285.295 255.097 285.296Z" data--h-bstatus="0OBSERVED"/>
<path fill="white" d="M203.602 312.872L183.357 294.338L190.64 287.67L203.601 299.536L236.338 269.565L243.621 276.232L203.602 312.872Z" data--h-bstatus="0OBSERVED"/>
<path fill="white" d="M203.603 314.452L181.632 294.338L190.642 286.089L203.603 297.954L236.34 267.983L245.35 276.232L203.603 314.452ZM185.085 294.338L203.603 311.29L241.896 276.232L236.34 271.145L203.603 301.116L190.642 289.25L185.085 294.338Z" data--h-bstatus="0OBSERVED"/>
<path fill="#E0E0E0" d="M126.476 319.274C124.632 313.292 116.14 313.872 116.14 313.872L116.373 318.032C121.282 317.258 124.333 322.524 124.333 322.524L126.476 319.274Z" data--h-bstatus="0OBSERVED"/>
<path fill="#E0E0E0" d="M251.167 250.209C261.017 252.941 267.145 242.541 267.145 242.541L261.153 239.415C258.223 245.786 248.385 245.049 248.385 245.049L251.167 250.209Z" data--h-bstatus="0OBSERVED"/>
<path fill="#E0E0E0" d="M332.933 306.043C331.027 301.07 323.875 301.972 323.875 301.972L324.312 305.481C328.421 304.588 331.307 308.898 331.307 308.898L332.933 306.043Z" data--h-bstatus="0OBSERVED"/>
<path fill="#E0E0E0" d="M219.957 189.55C218.051 184.577 210.898 185.479 210.898 185.479L211.336 188.988C215.445 188.094 218.33 192.405 218.33 192.405L219.957 189.55Z" data--h-bstatus="0OBSERVED"/>
<path fill="#EBEBEB" d="M134.613 253.187C132.707 248.214 125.555 249.114 125.555 249.114L125.992 252.624C130.101 251.731 132.986 256.04 132.986 256.04L134.613 253.187Z" data--h-bstatus="0OBSERVED"/>
<path fill="#EBEBEB" d="M116.681 206.695C111.001 207.547 110.727 214.153 110.727 214.153L114.577 214.369C114.331 210.509 119.469 208.657 119.469 208.657L116.681 206.695Z" data--h-bstatus="0OBSERVED"/>
<path fill="#EBEBEB" d="M75.783 361.403C85.633 364.135 91.762 353.735 91.762 353.735L85.769 350.608C82.839 356.979 73.001 356.242 73.001 356.242L75.783 361.403Z" data--h-bstatus="0OBSERVED"/>
<path fill="#E0E0E0" d="M356.392 250.788C357.058 246.613 351.618 244.819 351.618 244.819L350.504 247.458C353.782 248.221 354.08 252.259 354.08 252.259L356.392 250.788Z" data--h-bstatus="0OBSERVED"/>
<path fill="#EBEBEB" d="M323.645 204.923C319.804 207.257 321.978 212.162 321.978 212.162L324.866 211.155C323.3 208.409 326.385 205.512 326.385 205.512L323.645 204.923Z" data--h-bstatus="0OBSERVED"/>
<path fill="#28B0E8" d="M288.778 329.694C286.933 323.712 278.441 324.293 278.441 324.293L278.675 328.454C283.584 327.678 286.635 332.945 286.635 332.945L288.778 329.694Z" data--h-bstatus="0OBSERVED"/>
<path fill="#28B0E8" d="M205.228 260.097C200.644 260.542 200.096 265.812 200.096 265.812L203.164 266.145C203.159 263.049 207.358 261.783 207.358 261.783L205.228 260.097Z" data--h-bstatus="0OBSERVED"/>
<path fill="#28B0E8" d="M247.911 204.276C250.711 210.799 260.164 209.282 260.164 209.282L259.396 204.639C253.984 206.012 249.921 200.411 249.921 200.411L247.911 204.276Z" data--h-bstatus="0OBSERVED"/>
<path fill="#28B0E8" d="M141.277 314.471C136.693 314.917 136.145 320.186 136.145 320.186L139.213 320.52C139.213 317.423 143.407 316.156 143.407 316.156L141.277 314.471Z" data--h-bstatus="0OBSERVED"/>
<path fill="#28B0E8" d="M160.163 225.124C160.829 220.949 155.389 219.155 155.389 219.155L154.275 221.794C157.553 222.557 157.851 226.596 157.851 226.596L160.163 225.124Z" data--h-bstatus="0OBSERVED"/>
<path fill="#28B0E8" d="M81.794 289.216C80.97 295.764 90.445 297.35 90.445 297.35L92.1539 293.065C86.4699 292.595 85.6489 286.464 85.6489 286.464L81.794 289.216Z" data--h-bstatus="0OBSERVED"/>
<path fill="#28B0E8" d="M306.971 257.618C311.571 257.859 313.046 252.74 313.046 252.74L310.078 251.955C309.534 255.012 305.166 255.638 305.166 255.638L306.971 257.618Z" data--h-bstatus="0OBSERVED"/>
<defs data--h-bstatus="0OBSERVED">
<filter color-interpolation-filters="sRGB" filterUnits="userSpaceOnUse" height="13" width="442" y="76.4253" x="-2.5" id="filter0_d_1_2708" data--h-bstatus="0OBSERVED">
<feFlood result="BackgroundImageFix" flood-opacity="0" data--h-bstatus="0OBSERVED"/>
<feColorMatrix result="hardAlpha" values="0 0 0 0 0 0 0 0 0 0 0 0 0 0 0 0 0 0 127 0" type="matrix" in="SourceAlpha" data--h-bstatus="0OBSERVED"/>
<feOffset dy="6" dx="3" data--h-bstatus="0OBSERVED"/>
<feGaussianBlur stdDeviation="3" data--h-bstatus="0OBSERVED"/>
<feColorMatrix values="0 0 0 0 0.905882 0 0 0 0 0.909804 0 0 0 0 0.909804 0 0 0 1 0" type="matrix" data--h-bstatus="0OBSERVED"/>
<feBlend result="effect1_dropShadow_1_2708" in2="BackgroundImageFix" mode="normal" data--h-bstatus="0OBSERVED"/>
<feBlend result="shape" in2="effect1_dropShadow_1_2708" in="SourceGraphic" mode="normal" data--h-bstatus="0OBSERVED"/>
</filter>
</defs>
</svg>