<svg width="17" height="17" viewBox="0 0 17 17" fill="none" xmlns="http://www.w3.org/2000/svg">
<path d="M3.84853 7.4545C5.10219 9.90638 7.09665 11.9008 9.54853 13.1545L11.4485 11.2545C11.5616 11.1412 11.7041 11.0617 11.8599 11.0249C12.0157 10.9882 12.1787 10.9956 12.3305 11.0465C13.3268 11.3739 14.3689 11.5403 15.4175 11.5395C15.6468 11.54 15.8665 11.6313 16.0286 11.7934C16.1907 11.9555 16.282 12.1752 16.2825 12.4045V15.4175C16.282 15.6467 16.1907 15.8665 16.0286 16.0286C15.8665 16.1907 15.6468 16.282 15.4175 16.2825C11.5188 16.2825 7.77984 14.7338 5.02306 11.977C2.26628 9.22018 0.717529 5.48118 0.717529 1.5825C0.718058 1.35325 0.809361 1.13354 0.971466 0.971435C1.13357 0.80933 1.35328 0.718027 1.58253 0.717499H4.60953C4.83878 0.718027 5.05849 0.80933 5.22059 0.971435C5.3827 1.13354 5.474 1.35325 5.47453 1.5825C5.47306 2.63122 5.6395 3.6734 5.96753 4.6695C6.01647 4.82212 6.02219 4.98532 5.98407 5.141C5.94594 5.29668 5.86546 5.43876 5.75153 5.5515L3.85153 7.4515L3.84853 7.4545Z" fill="#656665"/>
</svg>
